<svg width="20" height="20" viewBox="0 0 20 20" fill="none" xmlns="http://www.w3.org/2000/svg">
<g clip-path="url(#clip0_18_127)">
<path d="M17.6 0.399902H2.4C1.2972 0.399902 0.400002 1.2971 0.400002 2.3999V17.5999C0.400002 18.7027 1.2972 19.5999 2.4 19.5999H10.8V11.9999H8.4V9.5999H10.8V7.9999C10.8 5.5739 12.774 3.5999 15.2 3.5999H16.4V5.9999H15.2C14.0972 5.9999 13.2 6.8971 13.2 7.9999V9.5999H16.3468L16.0468 11.9999H13.2V19.5999H17.6C18.7028 19.5999 19.6 18.7027 19.6 17.5999V2.3999C19.6 1.2971 18.7028 0.399902 17.6 0.399902ZM18.8 17.5999C18.8 18.2615 18.2616 18.7999 17.6 18.7999H14V12.7999H16.7532L17.2532 8.7999H14V7.9999C14 7.3383 14.5384 6.7999 15.2 6.7999H17.2V2.7999H15.2C12.3328 2.7999 10 5.1327 10 7.9999V8.7999H7.6V12.7999H10V18.7999H2.4C1.7384 18.7999 1.2 18.2615 1.2 17.5999V2.3999C1.2 1.7383 1.7384 1.1999 2.4 1.1999H17.6C18.2616 1.1999 18.8 1.7383 18.8 2.3999V17.5999Z" fill="black"/>
</g>
<defs>
<clipPath id="clip0_18_127">
<rect width="20" height="20" fill="white"/>
</clipPath>
</defs>
</svg>
