<svg width="35" height="38" viewBox="0 0 35 38" fill="none" xmlns="http://www.w3.org/2000/svg">
<path d="M25.4261 0.391357C21.8281 0.391357 18.734 2.93508 17.4211 6.54832C16.1072 2.93508 13.0118 0.391357 9.41198 0.391357C4.62607 0.391357 0.732056 4.88964 0.732056 10.4191C0.732056 12.5529 1.32844 14.6101 2.4719 16.3911L16.896 37.2072C17.0238 37.3912 17.2166 37.4985 17.4211 37.4985H17.4215C17.626 37.4985 17.8193 37.3907 17.9466 37.2062L32.6828 15.8656C32.6967 15.8449 32.7106 15.8232 32.7232 15.8009C33.6303 14.1676 34.1101 12.3063 34.1101 10.4191C34.1105 4.88964 30.2143 0.391357 25.4261 0.391357ZM31.6097 14.9283L17.4202 35.4771L3.53688 15.4423C2.58176 13.9536 2.07684 12.2167 2.07684 10.4191C2.07684 5.74671 5.3673 1.94589 9.41153 1.94589C13.4571 1.94589 16.7485 5.74671 16.7485 10.4191C16.7485 10.8487 17.0493 11.1964 17.4211 11.1964C17.7928 11.1964 18.0937 10.8487 18.0937 10.4191C18.0937 5.74671 21.3828 1.94589 25.4261 1.94589C29.4726 1.94589 32.7653 5.74671 32.7653 10.4191C32.7653 11.9959 32.3658 13.5541 31.6097 14.9283Z" fill="black" fill-opacity="0.58"/>
</svg>
