<svg width="261" height="91" viewBox="0 0 261 91" fill="none" xmlns="http://www.w3.org/2000/svg">
<path d="M51.296 57.216C49.536 58.848 47.904 60.144 46.4 61.104C44.928 62.096 43.808 62.592 43.04 62.592C42.432 62.592 42.128 62.32 42.128 61.776C42.128 61.424 42.384 61.056 42.896 60.672C43.44 60.32 44.112 59.968 44.912 59.616C45.712 59.264 46.544 58.912 47.408 58.56C48.272 58.208 49.056 57.872 49.76 57.552C52.064 56.496 54.416 55.168 56.816 53.568C59.248 51.936 61.632 50.112 63.968 48.096C66.336 46.048 68.56 43.904 70.64 41.664C72.72 39.392 74.544 37.056 76.112 34.656C77.712 32.256 78.96 29.872 79.856 27.504C80.784 25.136 81.248 22.864 81.248 20.688C81.248 19.92 81.12 19.184 80.864 18.48C80.608 17.776 80.288 17.248 79.904 16.896L80.144 16.704C80.656 17.12 81.04 17.744 81.296 18.576C81.584 19.376 81.728 20.24 81.728 21.168C81.728 23.312 81.248 25.584 80.288 27.984C79.36 30.384 78.064 32.816 76.4 35.28C74.736 37.712 72.832 40.096 70.688 42.432C68.544 44.736 66.272 46.912 63.872 48.96C61.472 51.008 59.056 52.8 56.624 54.336C54.192 55.904 51.856 57.152 49.616 58.08C49.136 58.272 48.528 58.496 47.792 58.752C47.088 59.04 46.368 59.344 45.632 59.664C44.896 59.984 44.272 60.304 43.76 60.624C43.28 60.944 43.04 61.248 43.04 61.536C43.04 61.76 43.216 61.872 43.568 61.872C44.304 61.872 45.232 61.472 46.352 60.672C47.504 59.872 48.72 58.848 50 57.6C51.792 55.808 53.408 53.76 54.848 51.456C56.32 49.12 57.6 46.672 58.688 44.112C59.776 41.552 60.656 39.024 61.328 36.528C62.032 34 62.528 31.664 62.816 29.52C63.232 26.032 63.792 23.344 64.496 21.456C65.232 19.536 66.08 18.576 67.04 18.576C68.032 18.576 68.528 19.584 68.528 21.6C68.528 22.88 68.272 24.256 67.76 25.728C67.28 27.2 66.624 28.688 65.792 30.192C64.992 31.696 64.096 33.168 63.104 34.608C62.144 36.048 61.168 37.376 60.176 38.592C59.216 39.808 58.352 40.832 57.584 41.664C56.048 43.328 54.352 44.976 52.496 46.608C50.672 48.208 48.768 49.728 46.784 51.168C44.8 52.608 42.784 53.92 40.736 55.104C38.72 56.288 36.752 57.28 34.832 58.08C34.352 58.272 33.744 58.496 33.008 58.752C32.304 59.04 31.584 59.344 30.848 59.664C30.112 59.984 29.488 60.304 28.976 60.624C28.496 60.944 28.256 61.248 28.256 61.536C28.256 61.76 28.432 61.872 28.784 61.872C29.712 61.872 30.928 61.264 32.432 60.048C33.968 58.864 35.616 57.216 37.376 55.104C39.136 52.992 40.816 50.592 42.416 47.904C44.208 45.12 45.696 42.176 46.88 39.072C48.096 35.936 48.704 32.864 48.704 29.856C48.704 26.976 48.112 24.336 46.928 21.936C45.776 19.504 44.128 17.424 41.984 15.696C39.872 13.936 37.344 12.592 34.4 11.664C31.456 10.704 28.208 10.224 24.656 10.224C21.552 10.224 18.64 10.624 15.92 11.424C13.232 12.224 10.88 13.344 8.864 14.784C6.88 16.192 5.328 17.856 4.208 19.776C3.088 21.696 2.528 23.776 2.528 26.016C2.528 28.576 3.248 30.832 4.688 32.784C6.128 34.736 8.128 36.256 10.688 37.344C13.28 38.432 16.24 38.976 19.568 38.976C22 38.976 24.208 38.656 26.192 38.016C28.208 37.376 29.808 36.528 30.992 35.472C32.176 34.384 32.768 33.2 32.768 31.92C32.768 30.512 32.032 29.392 30.56 28.56C29.088 27.728 27.152 27.312 24.752 27.312C22.8 27.312 20.96 27.584 19.232 28.128C17.504 28.64 15.984 29.36 14.672 30.288C13.392 31.216 12.384 32.304 11.648 33.552C10.912 34.768 10.544 36.08 10.544 37.488C10.544 39.12 11.072 40.56 12.128 41.808C13.216 43.056 14.72 44.032 16.64 44.736C18.56 45.408 20.768 45.744 23.264 45.744C26.304 45.744 29.008 45.376 31.376 44.64C33.776 43.904 35.808 42.912 37.472 41.664C39.136 40.384 40.4 38.928 41.264 37.296C42.128 35.632 42.56 33.904 42.56 32.112C42.56 29.584 41.76 27.36 40.16 25.44C38.56 23.52 36.336 22.016 33.488 20.928C30.672 19.84 27.44 19.296 23.792 19.296C20.592 19.296 17.6 19.76 14.816 20.688C12.064 21.616 9.648 22.928 7.568 24.624C5.52 26.288 3.92 28.256 2.768 30.528C1.616 32.768 1.04 35.184 1.04 37.776C1.04 41.04 1.968 43.904 3.824 46.368C5.712 48.8 8.336 50.688 11.696 52.032C15.056 53.376 18.976 54.048 23.456 54.048C26.24 54.048 28.816 53.744 31.184 53.136C33.584 52.528 35.632 51.664 37.328 50.544C39.024 49.424 40.256 48.128 41.024 46.656L41.36 46.8C40.592 48.304 39.328 49.632 37.568 50.784C35.84 51.904 33.76 52.8 31.328 53.472C28.928 54.112 26.304 54.432 23.456 54.432C18.912 54.432 14.928 53.744 11.504 52.368C8.08 50.96 5.408 49.008 3.488 46.512C1.6 43.984 0.656 41.072 0.656 37.776C0.656 35.12 1.232 32.656 2.384 30.384C3.568 28.08 5.216 26.08 7.328 24.384C9.44 22.656 11.888 21.312 14.672 20.352C17.488 19.392 20.528 18.912 23.792 18.912C27.6 18.912 30.928 19.472 33.776 20.592C36.656 21.712 38.896 23.264 40.496 25.248C42.128 27.2 42.944 29.488 42.944 32.112C42.944 33.936 42.496 35.696 41.6 37.392C40.736 39.056 39.472 40.56 37.808 41.904C36.144 43.216 34.08 44.256 31.616 45.024C29.184 45.792 26.4 46.176 23.264 46.176C20.64 46.176 18.336 45.808 16.352 45.072C14.4 44.336 12.88 43.312 11.792 42C10.704 40.656 10.16 39.104 10.16 37.344C10.16 35.904 10.544 34.56 11.312 33.312C12.08 32.064 13.12 30.96 14.432 30C15.776 29.04 17.328 28.288 19.088 27.744C20.848 27.2 22.736 26.928 24.752 26.928C27.248 26.928 29.28 27.392 30.848 28.32C32.416 29.248 33.2 30.448 33.2 31.92C33.2 33.264 32.576 34.496 31.328 35.616C30.08 36.736 28.432 37.648 26.384 38.352C24.336 39.024 22.048 39.36 19.52 39.36C16.128 39.36 13.12 38.784 10.496 37.632C7.904 36.48 5.856 34.912 4.352 32.928C2.88 30.912 2.144 28.608 2.144 26.016C2.144 23.712 2.72 21.584 3.872 19.632C5.024 17.68 6.624 15.968 8.672 14.496C10.72 13.024 13.12 11.888 15.872 11.088C18.624 10.256 21.6 9.84 24.8 9.84C28.8 9.84 32.448 10.384 35.744 11.472C39.072 12.528 41.936 14.048 44.336 16.032C46.736 18.016 48.592 20.368 49.904 23.088C51.216 25.808 51.872 28.816 51.872 32.112C51.872 34.384 51.296 36.96 50.144 39.84C49.024 42.688 47.376 45.424 45.2 48.048C44.176 49.36 43.024 50.704 41.744 52.08C40.496 53.424 39.2 54.72 37.856 55.968C36.544 57.248 35.264 58.384 34.016 59.376C32.8 60.368 31.68 61.152 30.656 61.728C29.664 62.304 28.864 62.592 28.256 62.592C27.648 62.592 27.344 62.32 27.344 61.776C27.344 61.424 27.6 61.056 28.112 60.672C28.656 60.32 29.328 59.968 30.128 59.616C30.928 59.264 31.76 58.912 32.624 58.56C33.488 58.208 34.272 57.872 34.976 57.552C39.04 55.696 42.96 53.36 46.736 50.544C50.512 47.728 53.952 44.688 57.056 41.424C59.264 38.96 61.2 36.464 62.864 33.936C64.528 31.376 65.808 28.992 66.704 26.784C67.632 24.544 68.096 22.656 68.096 21.12C68.096 19.68 67.744 18.96 67.04 18.96C66.528 18.96 66.096 19.264 65.744 19.872C65.424 20.48 65.104 21.6 64.784 23.232C64.496 24.864 64.16 27.232 63.776 30.336C63.488 32.48 63.072 34.736 62.528 37.104C61.984 39.44 61.232 41.808 60.272 44.208C59.344 46.608 58.144 48.912 56.672 51.12C55.2 53.328 53.408 55.36 51.296 57.216ZM72.557 54.096C73.453 54.096 74.509 53.808 75.725 53.232C76.973 52.656 78.237 51.872 79.517 50.88C80.829 49.888 82.045 48.768 83.165 47.52L83.645 46.944H84.077L83.693 47.376C82.541 48.688 81.277 49.888 79.901 50.976C78.525 52.032 77.181 52.864 75.869 53.472C74.589 54.08 73.485 54.384 72.557 54.384C71.821 54.384 71.245 54.128 70.829 53.616C70.381 53.104 70.157 52.4 70.157 51.504C70.157 50.608 70.429 49.68 70.973 48.72C71.485 47.728 72.173 46.768 73.037 45.84C73.933 44.912 74.925 44.08 76.013 43.344C77.101 42.576 78.221 41.984 79.373 41.568C80.525 41.12 81.629 40.896 82.685 40.896C83.165 40.896 83.549 40.992 83.837 41.184C84.125 41.376 84.269 41.616 84.269 41.904C84.269 42.48 83.933 43.088 83.261 43.728C82.621 44.368 81.789 44.976 80.765 45.552C79.741 46.096 78.637 46.56 77.453 46.944C76.301 47.296 75.197 47.472 74.141 47.472L74.477 47.088C75.469 47.024 76.509 46.832 77.597 46.512C78.685 46.16 79.677 45.728 80.573 45.216C81.501 44.672 82.253 44.112 82.829 43.536C83.405 42.96 83.693 42.416 83.693 41.904C83.693 41.488 83.405 41.28 82.829 41.28C82.157 41.28 81.325 41.568 80.333 42.144C79.373 42.72 78.365 43.472 77.309 44.4C76.253 45.296 75.261 46.288 74.333 47.376C73.405 48.432 72.669 49.456 72.125 50.448C71.549 51.44 71.261 52.272 71.261 52.944C71.261 53.712 71.693 54.096 72.557 54.096ZM105.688 33.936H103.864L123.208 12.048H126.616C125.816 12.432 124.424 13.584 122.44 15.504C120.456 17.392 118.056 19.952 115.24 23.184L105.688 33.936ZM82.6962 54.288C81.7682 54.288 81.3042 53.584 81.3042 52.176C81.3042 51.216 81.5922 50.224 82.1682 49.2C82.7122 48.144 83.4482 47.12 84.3763 46.128C85.3363 45.136 86.3923 44.24 87.5443 43.44C88.7283 42.608 89.9283 41.968 91.1443 41.52C92.3923 41.04 93.5763 40.8 94.6963 40.8C95.6563 40.8 96.1363 41.152 96.1363 41.856C96.1363 42.528 95.7043 43.392 94.8403 44.448C93.9763 45.472 92.8883 46.672 91.5763 48.048C90.5523 49.104 89.4643 50.112 88.3123 51.072C87.1923 52.032 86.1363 52.816 85.1443 53.424C84.1523 54 83.3362 54.288 82.6962 54.288ZM82.7442 54C83.2882 54 84.0083 53.744 84.9043 53.232C85.8003 52.688 86.8083 51.952 87.9283 51.024C89.0483 50.096 90.1843 49.024 91.3363 47.808C92.6483 46.464 93.7043 45.296 94.5043 44.304C95.3363 43.312 95.7523 42.512 95.7523 41.904C95.7523 41.456 95.4483 41.232 94.8403 41.232C94.2643 41.232 93.5443 41.456 92.6803 41.904C91.8483 42.32 90.9523 42.896 89.9922 43.632C89.0323 44.368 88.0723 45.184 87.1123 46.08C86.1843 46.976 85.3363 47.888 84.5683 48.816C83.8003 49.712 83.1762 50.56 82.6962 51.36C82.2162 52.16 81.9762 52.816 81.9762 53.328C81.9762 53.776 82.2322 54 82.7442 54ZM94.7923 46.272C93.5123 47.712 92.4883 48.88 91.7203 49.776C90.9523 50.64 90.4083 51.344 90.0883 51.888C89.7683 52.432 89.6083 52.896 89.6083 53.28C89.6083 53.824 89.8323 54.096 90.2803 54.096C90.7923 54.096 91.5123 53.824 92.4403 53.28C93.3683 52.704 94.4243 51.92 95.6083 50.928C96.8243 49.904 98.0243 48.768 99.2083 47.52L99.6883 46.944H100.12L99.7363 47.376C98.5523 48.688 97.3363 49.888 96.0883 50.976C94.8403 52.032 93.7043 52.864 92.6803 53.472C91.6563 54.08 90.8243 54.384 90.1843 54.384C89.8963 54.384 89.6243 54.256 89.3683 54C89.1443 53.776 89.0323 53.488 89.0323 53.136C89.0323 52.176 89.5443 50.912 90.5683 49.344C91.5923 47.744 93.0163 46 94.8403 44.112L103.864 33.936H105.688L94.7923 46.272ZM98.7283 54.288C97.8003 54.288 97.3363 53.584 97.3363 52.176C97.3363 51.216 97.6083 50.224 98.1523 49.2C98.7283 48.144 99.4803 47.12 100.408 46.128C101.368 45.136 102.424 44.24 103.576 43.44C104.76 42.608 105.96 41.968 107.176 41.52C108.424 41.04 109.608 40.8 110.728 40.8C111.688 40.8 112.168 41.152 112.168 41.856C112.168 42.528 111.736 43.392 110.872 44.448C110.008 45.472 108.92 46.672 107.608 48.048C106.584 49.104 105.496 50.112 104.344 51.072C103.224 52.032 102.168 52.816 101.176 53.424C100.184 54 99.3683 54.288 98.7283 54.288ZM98.7763 54C99.3203 54 100.04 53.744 100.936 53.232C101.832 52.688 102.84 51.952 103.96 51.024C105.08 50.096 106.216 49.024 107.368 47.808C108.68 46.464 109.736 45.296 110.536 44.304C111.368 43.312 111.784 42.512 111.784 41.904C111.784 41.456 111.48 41.232 110.872 41.232C110.296 41.232 109.576 41.456 108.712 41.904C107.88 42.32 106.984 42.896 106.024 43.632C105.064 44.368 104.104 45.184 103.144 46.08C102.216 46.976 101.368 47.888 100.6 48.816C99.8323 49.712 99.2083 50.56 98.7283 51.36C98.2483 52.16 98.0083 52.816 98.0083 53.328C98.0083 53.776 98.2643 54 98.7763 54ZM110.824 46.272C109.544 47.712 108.52 48.88 107.752 49.776C106.984 50.64 106.44 51.344 106.12 51.888C105.8 52.432 105.64 52.896 105.64 53.28C105.64 53.824 105.864 54.096 106.312 54.096C106.824 54.096 107.544 53.824 108.472 53.28C109.4 52.704 110.456 51.92 111.64 50.928C112.856 49.904 114.056 48.768 115.24 47.52L115.72 46.944H116.152L115.768 47.376C114.584 48.688 113.368 49.888 112.12 50.976C110.872 52.032 109.736 52.864 108.712 53.472C107.688 54.08 106.856 54.384 106.216 54.384C105.928 54.384 105.656 54.256 105.4 54C105.176 53.776 105.064 53.488 105.064 53.136C105.064 52.176 105.576 50.912 106.6 49.344C107.624 47.744 109.048 46 110.872 44.112L119.896 33.936H121.72L110.824 46.272ZM131.272 23.184L121.72 33.936H119.896L140.392 10.8C140.872 10.8 141.448 10.768 142.12 10.704C142.792 10.608 143.432 10.48 144.04 10.32C143.4 10.64 142.424 11.424 141.112 12.672C139.8 13.92 138.296 15.456 136.6 17.28C134.904 19.104 133.128 21.072 131.272 23.184ZM113.511 54.384C113.191 54.384 112.919 54.256 112.695 54C112.439 53.776 112.311 53.488 112.311 53.136C112.311 52.08 112.983 50.624 114.327 48.768C115.639 46.912 117.767 44.448 120.711 41.376H123.975C123.591 41.568 123.143 41.872 122.631 42.288C122.151 42.672 121.575 43.168 120.903 43.776C118.951 45.664 117.383 47.232 116.199 48.48C115.015 49.728 114.167 50.736 113.655 51.504C113.143 52.24 112.887 52.832 112.887 53.28C112.887 53.824 113.111 54.096 113.559 54.096C114.071 54.096 114.791 53.808 115.719 53.232C116.647 52.624 117.671 51.824 118.791 50.832C119.911 49.808 120.999 48.704 122.055 47.52L122.535 46.944H122.967L122.583 47.376C121.399 48.72 120.215 49.936 119.031 51.024C117.847 52.08 116.775 52.912 115.815 53.52C114.855 54.096 114.087 54.384 113.511 54.384ZM131.319 30.576C131.639 30.576 131.799 30.688 131.799 30.912C131.799 31.296 131.559 31.76 131.079 32.304C130.631 32.816 130.087 33.264 129.447 33.648C128.839 34.032 128.311 34.224 127.863 34.224C127.575 34.224 127.431 34.112 127.431 33.888C127.431 33.536 127.671 33.104 128.151 32.592C128.631 32.08 129.175 31.616 129.783 31.2C130.423 30.784 130.935 30.576 131.319 30.576ZM122.948 46.944H122.516L122.996 46.416C124.564 44.688 126.052 43.312 127.46 42.288C128.9 41.232 130.036 40.704 130.868 40.704C131.188 40.704 131.46 40.816 131.684 41.04C131.908 41.264 132.02 41.568 132.02 41.952C132.02 42.72 131.684 43.6 131.012 44.592C130.372 45.552 129.268 46.848 127.7 48.48H128.228L127.124 49.92L123.476 54H119.924C121.236 53.04 122.564 51.952 123.908 50.736C125.284 49.52 126.548 48.304 127.7 47.088C128.852 45.872 129.78 44.784 130.484 43.824C131.188 42.832 131.54 42.128 131.54 41.712C131.54 41.232 131.3 40.992 130.82 40.992C130.372 40.992 129.732 41.248 128.9 41.76C128.068 42.24 127.172 42.896 126.212 43.728C125.252 44.528 124.324 45.424 123.428 46.416L122.948 46.944ZM131.924 54.384C131.508 54.384 131.14 54.208 130.82 53.856C130.532 53.504 130.388 53.072 130.388 52.56C130.388 51.824 130.676 51.04 131.252 50.208C131.828 49.376 132.532 48.56 133.364 47.76C134.228 46.928 135.076 46.144 135.908 45.408C136.772 44.672 137.492 44 138.068 43.392C138.644 42.784 138.932 42.256 138.932 41.808C138.932 41.392 138.676 41.184 138.164 41.184C137.684 41.184 137.012 41.456 136.148 42C135.284 42.512 134.324 43.2 133.268 44.064C132.212 44.928 131.156 45.872 130.1 46.896C129.044 47.92 128.052 48.928 127.124 49.92H126.692C127.62 48.896 128.628 47.856 129.716 46.8C130.804 45.744 131.892 44.768 132.98 43.872C134.068 42.976 135.06 42.256 135.956 41.712C136.884 41.168 137.636 40.896 138.212 40.896C138.628 40.896 138.996 41.04 139.316 41.328C139.668 41.584 139.844 42 139.844 42.576C139.844 43.344 139.54 44.128 138.932 44.928C138.356 45.728 137.636 46.528 136.772 47.328C135.908 48.096 135.028 48.848 134.132 49.584C133.268 50.288 132.532 50.96 131.924 51.6C131.348 52.24 131.06 52.816 131.06 53.328C131.06 53.552 131.14 53.744 131.3 53.904C131.492 54.032 131.7 54.096 131.924 54.096C132.5 54.096 133.284 53.792 134.276 53.184C135.3 52.576 136.404 51.776 137.588 50.784C138.772 49.76 139.892 48.672 140.948 47.52L141.428 46.944H141.86L141.476 47.376C140.324 48.688 139.124 49.872 137.876 50.928C136.628 51.984 135.476 52.832 134.42 53.472C133.364 54.08 132.532 54.384 131.924 54.384ZM140.446 54.288C139.518 54.288 139.054 53.584 139.054 52.176C139.054 51.216 139.342 50.208 139.918 49.152C140.462 48.096 141.198 47.088 142.126 46.128C143.086 45.136 144.142 44.24 145.294 43.44C146.478 42.608 147.678 41.968 148.894 41.52C150.142 41.04 151.326 40.8 152.446 40.8C153.406 40.8 153.886 41.152 153.886 41.856C153.886 42.4 153.55 43.12 152.878 44.016C152.238 44.88 151.054 46.224 149.326 48.048C148.142 49.264 146.974 50.352 145.822 51.312C144.67 52.24 143.614 52.976 142.654 53.52C141.726 54.032 140.99 54.288 140.446 54.288ZM140.494 54C141.294 54 142.478 53.44 144.046 52.32C145.646 51.168 147.326 49.664 149.086 47.808C150.782 46.08 151.934 44.8 152.542 43.968C153.182 43.136 153.502 42.448 153.502 41.904C153.502 41.456 153.198 41.232 152.59 41.232C152.014 41.232 151.294 41.456 150.43 41.904C149.598 42.32 148.702 42.896 147.742 43.632C146.782 44.368 145.822 45.184 144.862 46.08C143.934 46.976 143.086 47.888 142.318 48.816C141.55 49.712 140.926 50.56 140.446 51.36C139.966 52.16 139.726 52.816 139.726 53.328C139.726 53.776 139.982 54 140.494 54ZM156.67 47.376C155.294 48.944 153.646 50.56 151.726 52.224C149.838 53.888 147.614 55.616 145.054 57.408C142.526 59.232 139.582 61.152 136.222 63.168C133.694 64.672 131.294 66.192 129.022 67.728C126.718 69.296 124.702 70.768 122.974 72.144C121.214 73.552 119.822 74.8 118.798 75.888C117.774 76.976 117.262 77.792 117.262 78.336C117.262 78.72 117.47 78.912 117.886 78.912C118.974 78.912 120.414 78.352 122.206 77.232C123.998 76.112 125.998 74.56 128.206 72.576C130.414 70.624 132.718 68.336 135.118 65.712C137.518 63.088 139.87 60.272 142.174 57.264C142.75 56.528 143.342 55.76 143.95 54.96C144.558 54.16 145.278 53.232 146.11 52.176C146.974 51.088 147.982 49.792 149.134 48.288L149.278 48.912H148.174L152.734 44.256L155.086 41.376H158.158C157.166 42.048 156.126 42.848 155.038 43.776C153.982 44.672 152.942 45.6 151.918 46.56C150.894 47.52 149.966 48.464 149.134 49.392C145.998 53.968 143.262 57.808 140.926 60.912C138.558 64.048 136.622 66.448 135.118 68.112C131.758 71.696 128.606 74.448 125.662 76.368C122.686 78.32 120.126 79.296 117.982 79.296C117.118 79.296 116.686 78.992 116.686 78.384C116.686 77.776 117.23 76.88 118.318 75.696C119.406 74.544 120.878 73.232 122.734 71.76C124.558 70.288 126.622 68.768 128.926 67.2C131.198 65.664 133.534 64.224 135.934 62.88C138.846 61.248 141.566 59.536 144.094 57.744C146.654 55.984 148.958 54.224 151.006 52.464C153.054 50.704 154.766 49.056 156.142 47.52L156.622 46.944H157.054L156.67 47.376ZM195.844 26.592C198.564 26.592 200.692 27.056 202.228 27.984C203.764 28.912 204.532 30.112 204.532 31.584C204.532 32.64 204.02 33.744 202.996 34.896C201.972 36.048 200.452 37.024 198.436 37.824C196.42 38.624 193.892 39.024 190.852 39.024C187.236 39.024 184.132 38.416 181.54 37.2C178.948 35.984 176.948 34.368 175.54 32.352C174.164 30.336 173.476 28.112 173.476 25.68C173.476 23.664 173.972 21.696 174.964 19.776C175.988 17.856 177.46 16.128 179.38 14.592C181.332 13.056 183.684 11.84 186.436 10.944C189.22 10.016 192.388 9.552 195.94 9.552C199.3 9.552 202.388 10.032 205.204 10.992C208.052 11.952 210.532 13.312 212.644 15.072C214.756 16.8 216.388 18.848 217.54 21.216C218.724 23.552 219.316 26.096 219.316 28.848C219.316 32.304 218.628 35.6 217.252 38.736C215.908 41.872 214.004 44.672 211.54 47.136C209.076 49.568 206.18 51.488 202.852 52.896C199.524 54.304 195.892 55.008 191.956 55.008C189.876 55.008 188.068 54.8 186.532 54.384C184.996 53.968 183.588 53.488 182.308 52.944C181.06 52.4 179.86 51.92 178.708 51.504C177.588 51.088 176.388 50.88 175.108 50.88C174.148 50.88 173.396 51.024 172.852 51.312C172.34 51.6 172.084 52.016 172.084 52.56C172.084 54 173.732 54.72 177.028 54.72C179.652 54.72 182.372 54.128 185.188 52.944C188.036 51.76 190.74 50.064 193.3 47.856C195.124 46.288 196.932 44.592 198.724 42.768C200.516 40.912 202.276 39.04 204.004 37.152C205.764 35.232 207.46 33.392 209.092 31.632C210.724 29.84 212.308 28.224 213.844 26.784C214.996 25.6 216.116 24.592 217.204 23.76C218.324 22.896 219.396 22.176 220.42 21.6H222.868C221.62 21.952 220.196 22.624 218.596 23.616C216.996 24.576 215.508 25.728 214.132 27.072C212.596 28.64 211.124 30.448 209.716 32.496C208.308 34.512 206.9 36.608 205.492 38.784C204.084 40.96 202.596 43.072 201.028 45.12C199.46 47.136 197.732 48.96 195.844 50.592C193.956 52.224 191.844 53.536 189.508 54.528C187.204 55.52 184.58 56.016 181.636 56.016C179.076 56.016 177.076 55.856 175.636 55.536C174.196 55.248 173.172 54.848 172.564 54.336C171.988 53.856 171.7 53.296 171.7 52.656C171.7 52.016 171.94 51.488 172.42 51.072C172.932 50.656 173.764 50.448 174.916 50.448C176.164 50.448 177.396 50.656 178.612 51.072C179.86 51.488 181.14 51.984 182.452 52.56C183.796 53.104 185.236 53.584 186.772 54C188.34 54.416 190.068 54.624 191.956 54.624C195.7 54.624 199.204 53.968 202.468 52.656C205.732 51.312 208.596 49.472 211.06 47.136C213.524 44.768 215.444 42.032 216.82 38.928C218.228 35.792 218.932 32.432 218.932 28.848C218.932 26.128 218.356 23.616 217.204 21.312C216.084 19.008 214.484 17.008 212.404 15.312C210.324 13.584 207.876 12.256 205.06 11.328C202.244 10.4 199.172 9.936 195.844 9.936C192.708 9.936 189.796 10.336 187.108 11.136C184.452 11.904 182.132 13.008 180.148 14.448C178.164 15.888 176.612 17.568 175.492 19.488C174.404 21.376 173.86 23.44 173.86 25.68C173.86 28.208 174.58 30.448 176.02 32.4C177.492 34.352 179.508 35.888 182.068 37.008C184.628 38.096 187.572 38.64 190.9 38.64C193.332 38.64 195.54 38.32 197.524 37.68C199.54 37.04 201.14 36.192 202.324 35.136C203.508 34.048 204.1 32.864 204.1 31.584C204.1 30.176 203.348 29.056 201.844 28.224C200.372 27.392 198.372 26.976 195.844 26.976C193.22 26.976 190.836 27.44 188.692 28.368C186.548 29.264 184.836 30.496 183.556 32.064C182.276 33.6 181.636 35.312 181.636 37.2C181.636 38.864 182.164 40.32 183.22 41.568C184.276 42.784 185.764 43.744 187.684 44.448C189.604 45.12 191.828 45.456 194.356 45.456C196.98 45.456 199.412 45.12 201.652 44.448C203.892 43.744 205.828 42.768 207.46 41.52C209.124 40.272 210.404 38.8 211.3 37.104C212.228 35.408 212.692 33.552 212.692 31.536C212.692 29.04 211.892 26.88 210.292 25.056C208.724 23.2 206.484 21.776 203.572 20.784C200.692 19.76 197.332 19.248 193.492 19.248C189.78 19.248 186.244 19.712 182.884 20.64C179.556 21.536 176.516 22.832 173.764 24.528C171.012 26.224 168.628 28.224 166.612 30.528C164.596 32.832 163.044 35.392 161.956 38.208C160.836 40.992 160.276 43.936 160.276 47.04C160.276 50.432 160.948 53.536 162.292 56.352C163.604 59.2 165.476 61.648 167.908 63.696C170.372 65.744 173.268 67.328 176.596 68.448C179.956 69.568 183.652 70.128 187.684 70.128C190.596 70.128 193.412 69.824 196.132 69.216C198.852 68.64 201.396 67.808 203.764 66.72C206.132 65.632 208.212 64.32 210.004 62.784C211.828 61.28 213.284 59.6 214.372 57.744L214.66 57.936C213.572 59.792 212.116 61.488 210.292 63.024C208.468 64.592 206.356 65.92 203.956 67.008C201.556 68.128 198.98 68.992 196.228 69.6C193.476 70.208 190.628 70.512 187.684 70.512C183.62 70.512 179.892 69.936 176.5 68.784C173.108 67.632 170.164 66.016 167.668 63.936C165.204 61.856 163.3 59.376 161.956 56.496C160.58 53.648 159.892 50.496 159.892 47.04C159.892 43.904 160.452 40.928 161.572 38.112C162.692 35.264 164.26 32.672 166.276 30.336C168.324 28 170.74 25.984 173.524 24.288C176.34 22.56 179.428 21.232 182.788 20.304C186.18 19.344 189.748 18.864 193.492 18.864C197.428 18.864 200.852 19.392 203.764 20.448C206.708 21.504 208.996 22.976 210.628 24.864C212.26 26.752 213.076 28.976 213.076 31.536C213.076 33.584 212.596 35.472 211.636 37.2C210.708 38.928 209.396 40.448 207.7 41.76C206.036 43.04 204.068 44.048 201.796 44.784C199.524 45.488 197.044 45.84 194.356 45.84C191.7 45.84 189.396 45.488 187.444 44.784C185.492 44.048 183.972 43.04 182.884 41.76C181.796 40.448 181.252 38.928 181.252 37.2C181.252 35.216 181.908 33.44 183.22 31.872C184.532 30.272 186.292 28.992 188.5 28.032C190.708 27.072 193.156 26.592 195.844 26.592ZM216.182 46.944H215.75L216.23 46.416C218.79 43.6 220.854 41.296 222.422 39.504C223.99 37.68 225.03 36.416 225.542 35.712H227.318C226.23 36.544 224.854 37.792 223.19 39.456C221.558 41.088 219.398 43.392 216.71 46.368L216.182 46.944ZM217.238 54.096C217.846 54.096 218.662 53.792 219.686 53.184C220.71 52.576 221.814 51.776 222.998 50.784C224.182 49.76 225.302 48.672 226.358 47.52L226.886 46.944H227.27L226.934 47.376C225.782 48.688 224.566 49.872 223.286 50.928C222.038 51.984 220.87 52.832 219.782 53.472C218.726 54.08 217.862 54.384 217.19 54.384C216.838 54.384 216.486 54.256 216.134 54C215.782 53.776 215.606 53.392 215.606 52.848C215.606 52.144 215.878 51.392 216.422 50.592C216.966 49.792 217.654 48.976 218.486 48.144C219.35 47.312 220.198 46.512 221.03 45.744C221.862 44.976 222.55 44.272 223.094 43.632C223.638 42.96 223.91 42.384 223.91 41.904C223.91 41.424 223.606 41.184 222.998 41.184C222.742 41.184 222.422 41.232 222.038 41.328C221.686 41.392 221.286 41.52 220.838 41.712L221.174 41.28C221.526 41.12 221.878 40.992 222.23 40.896C222.582 40.768 222.95 40.704 223.334 40.704C224.038 40.704 224.598 40.848 225.014 41.136C225.462 41.424 225.686 41.888 225.686 42.528C225.686 43.296 225.366 44.08 224.726 44.88C224.118 45.648 223.334 46.4 222.374 47.136C221.446 47.872 220.518 48.608 219.59 49.344C218.662 50.048 217.878 50.736 217.238 51.408C216.63 52.048 216.326 52.672 216.326 53.28C216.326 53.824 216.63 54.096 217.238 54.096ZM227.338 54.096C228.234 54.096 229.29 53.808 230.506 53.232C231.754 52.656 233.018 51.872 234.298 50.88C235.61 49.888 236.826 48.768 237.946 47.52L238.426 46.944H238.858L238.474 47.376C237.322 48.688 236.058 49.888 234.682 50.976C233.306 52.032 231.962 52.864 230.65 53.472C229.37 54.08 228.266 54.384 227.338 54.384C226.602 54.384 226.026 54.128 225.61 53.616C225.162 53.104 224.938 52.4 224.938 51.504C224.938 50.608 225.21 49.68 225.754 48.72C226.266 47.728 226.954 46.768 227.818 45.84C228.714 44.912 229.706 44.08 230.794 43.344C231.882 42.576 233.002 41.984 234.154 41.568C235.306 41.12 236.41 40.896 237.466 40.896C237.946 40.896 238.33 40.992 238.618 41.184C238.906 41.376 239.05 41.616 239.05 41.904C239.05 42.48 238.714 43.088 238.042 43.728C237.402 44.368 236.57 44.976 235.546 45.552C234.522 46.096 233.418 46.56 232.234 46.944C231.082 47.296 229.978 47.472 228.922 47.472L229.258 47.088C230.25 47.024 231.29 46.832 232.378 46.512C233.466 46.16 234.458 45.728 235.354 45.216C236.282 44.672 237.034 44.112 237.61 43.536C238.186 42.96 238.474 42.416 238.474 41.904C238.474 41.488 238.186 41.28 237.61 41.28C236.938 41.28 236.106 41.568 235.114 42.144C234.154 42.72 233.146 43.472 232.09 44.4C231.034 45.296 230.042 46.288 229.114 47.376C228.186 48.432 227.45 49.456 226.906 50.448C226.33 51.44 226.042 52.272 226.042 52.944C226.042 53.712 226.474 54.096 227.338 54.096ZM238.87 46.944H238.438L238.918 46.416C241.478 43.6 243.542 41.296 245.11 39.504C246.678 37.68 247.718 36.416 248.23 35.712H250.006C248.918 36.544 247.542 37.792 245.878 39.456C244.246 41.088 242.086 43.392 239.398 46.368L238.87 46.944ZM249.142 47.376C247.638 49.104 246.054 50.432 244.39 51.36C242.758 52.256 241.158 52.704 239.59 52.704C238.373 52.704 237.365 52.816 236.565 53.04C235.765 53.232 235.365 53.488 235.365 53.808C235.365 54 235.525 54.096 235.845 54.096C236.965 54.096 238.053 53.792 239.11 53.184C240.198 52.576 241.174 51.76 242.038 50.736C242.902 49.712 243.574 48.56 244.054 47.28C244.566 46 244.822 44.704 244.822 43.392C244.822 42.592 244.886 41.888 245.014 41.28C245.142 40.64 245.398 40 245.782 39.36C246.198 38.688 246.838 37.904 247.702 37.008L249.958 35.712C248.998 36.448 248.23 37.072 247.654 37.584C247.11 38.064 246.726 38.496 246.502 38.88C246.278 39.232 246.166 39.632 246.166 40.08C246.166 40.528 246.246 41.168 246.406 42C246.598 42.8 246.694 43.616 246.694 44.448C246.694 45.696 246.374 46.912 245.734 48.096C245.126 49.248 244.294 50.304 243.238 51.264C242.214 52.224 241.062 52.992 239.782 53.568C238.533 54.112 237.253 54.384 235.941 54.384C235.365 54.384 235.077 54.208 235.077 53.856C235.077 53.44 235.509 53.104 236.373 52.848C237.237 52.56 238.294 52.416 239.542 52.416C242.614 52.416 245.638 50.784 248.614 47.52L249.094 46.944H249.526L249.142 47.376ZM249.51 46.944H249.078L249.558 46.416C252.118 43.6 254.182 41.296 255.75 39.504C257.318 37.68 258.358 36.416 258.87 35.712H260.646C259.558 36.544 258.182 37.792 256.518 39.456C254.886 41.088 252.726 43.392 250.038 46.368L249.51 46.944ZM259.782 47.376C258.278 49.104 256.694 50.432 255.03 51.36C253.398 52.256 251.798 52.704 250.23 52.704C249.014 52.704 248.006 52.816 247.206 53.04C246.406 53.232 246.006 53.488 246.006 53.808C246.006 54 246.166 54.096 246.486 54.096C247.606 54.096 248.694 53.792 249.75 53.184C250.838 52.576 251.814 51.76 252.678 50.736C253.542 49.712 254.214 48.56 254.694 47.28C255.206 46 255.462 44.704 255.462 43.392C255.462 42.592 255.526 41.888 255.654 41.28C255.782 40.64 256.038 40 256.422 39.36C256.838 38.688 257.478 37.904 258.342 37.008L260.598 35.712C259.638 36.448 258.87 37.072 258.294 37.584C257.75 38.064 257.366 38.496 257.142 38.88C256.918 39.232 256.806 39.632 256.806 40.08C256.806 40.528 256.886 41.168 257.046 42C257.238 42.8 257.334 43.616 257.334 44.448C257.334 45.696 257.014 46.912 256.374 48.096C255.766 49.248 254.934 50.304 253.878 51.264C252.854 52.224 251.702 52.992 250.422 53.568C249.174 54.112 247.894 54.384 246.582 54.384C246.006 54.384 245.718 54.208 245.718 53.856C245.718 53.44 246.15 53.104 247.014 52.848C247.878 52.56 248.934 52.416 250.182 52.416C253.254 52.416 256.278 50.784 259.254 47.52L259.734 46.944H260.166L259.782 47.376Z" fill="black"/>
</svg>
