<svg width="31" height="35" viewBox="0 0 31 35" fill="none" xmlns="http://www.w3.org/2000/svg">
<path d="M27.8163 12.1901C27.3013 11.8691 26.6242 12.0261 26.3034 12.5409C25.9826 13.0557 26.1396 13.7328 26.6542 14.0536C27.8518 14.8004 28.5666 16.0888 28.5666 17.5001C28.5666 18.9114 27.8518 20.1997 26.6542 20.9466L8.64373 32.1765C7.37315 32.9687 5.83301 33.0077 4.524 32.2813C3.2148 31.5548 2.4332 30.2271 2.4332 28.73V6.27C2.4332 4.77286 3.2148 3.44519 4.524 2.71867C5.83301 1.99233 7.37315 2.03131 8.64373 2.82353L19.1283 9.3609C19.6431 9.68152 20.3202 9.52469 20.6411 9.01009C20.9619 8.49549 20.8049 7.8182 20.2903 7.49739L9.8058 0.960205C7.84841 -0.260234 5.47579 -0.320807 3.45838 0.798614C1.44152 1.91785 0.237366 3.96326 0.237366 6.27V28.7298C0.237366 31.0365 1.44152 33.082 3.45856 34.2012C4.41932 34.7343 5.46042 34.9998 6.49932 34.9998C7.64143 34.9998 8.7808 34.6788 9.8058 34.0396L27.8163 22.8097C29.6613 21.6592 30.7628 19.6743 30.7628 17.4999C30.7628 15.3255 29.6613 13.3406 27.8163 12.1901Z" fill="black"/>
</svg>
